<?xml version="1.0" standalone="no"?>
<!DOCTYPE svg PUBLIC "-//W3C//DTD SVG 1.1//EN"
 "http://www.w3.org/Graphics/SVG/1.1/DTD/svg11.dtd">
<!-- Created with svg_stack (http://github.com/astraw/svg_stack) -->
<svg xmlns:sodipodi="http://sodipodi.sourceforge.net/DTD/sodipodi-0.dtd" xmlns="http://www.w3.org/2000/svg" version="1.1" width="320.0" height="240.0">
  <defs/>
  <g id="id0:id0" transform="matrix(1.25,0,0,1.25,0.0,0.0)"><g transform="translate(0.000000,192.000000) scale(0.040000,-0.040000)" fill="#ffffff" stroke="none">
<path d="M1372 3163 c48 -2 129 -2 180 0 51 1 12 3 -87 3 -99 0 -141 -2 -93 -3z"/>
<path d="M2682 3163 c201 -2 534 -2 740 0 205 1 40 2 -367 2 -407 0 -575 -1 -373 -2z"/>
<path d="M4628 3163 c200 -2 524 -2 720 0 196 1 33 2 -363 2 -396 0 -557 -1 -357 -2z"/>
<path d="M1333 3053 c53 -2 141 -2 195 0 53 1 9 3 -98 3 -107 0 -151 -2 -97 -3z"/>
<path d="M2663 3053 c213 -2 561 -2 775 0 213 1 38 2 -388 2 -426 0 -601 -1 -387 -2z"/>
<path d="M4508 3053 c215 -2 569 -2 785 0 215 1 39 2 -393 2 -432 0 -608 -1 -392 -2z"/>
<path d="M1156 2941 c-8 -13 424 -14 443 -2 10 6 -67 10 -211 11 -135 0 -229 -3 -232 -9z"/>
<path d="M2220 2940 c21 -14 1587 -13 1595 0 4 7 -260 10 -802 10 -518 0 -803 -4 -793 -10z"/>
<path d="M4035 2940 c-8 -12 1561 -12 1590 0 11 5 -321 9 -782 9 -512 1 -804 -3 -808 -9z"/>
<path d="M1110 2840 c0 -5 5 -10 10 -10 6 0 10 5 10 10 0 6 -4 10 -10 10 -5 0 -10 -4 -10 -10z"/>
<path d="M1140 2840 c0 -6 75 -10 204 -10 126 0 207 4 211 10 4 7 -67 10 -204 10 -134 0 -211 -4 -211 -10z"/>
<path d="M3330 2840 c0 -5 5 -10 10 -10 6 0 10 5 10 10 0 6 -4 10 -10 10 -5 0 -10 -4 -10 -10z"/>
<path d="M3360 2840 c0 -6 75 -10 204 -10 126 0 207 4 211 10 4 7 -67 10 -204 10 -134 0 -211 -4 -211 -10z"/>
<path d="M3990 2840 c0 -5 5 -10 10 -10 6 0 10 5 10 10 0 6 -4 10 -10 10 -5 0 -10 -4 -10 -10z"/>
<path d="M4020 2840 c0 -13 399 -14 419 -1 9 6 -67 10 -202 11 -143 0 -217 -3 -217 -10z"/>
<path d="M1066 2725 c-5 -13 22 -15 204 -15 139 0 210 4 210 10 0 7 -65 10 -195 8 -107 -2 -195 0 -195 5 0 13 -18 7 -24 -8z"/>
<path d="M1490 2725 c0 -8 5 -15 10 -15 6 0 10 7 10 15 0 8 -4 15 -10 15 -5 0 -10 -7 -10 -15z"/>
<path d="M3287 2726 c-6 -14 18 -16 203 -16 133 0 210 4 210 10 0 6 -70 10 -189 10 -104 0 -196 3 -204 6 -8 3 -17 -2 -20 -10z"/>
<path d="M3710 2725 c0 -8 5 -15 10 -15 6 0 10 7 10 15 0 8 -4 15 -10 15 -5 0 -10 -7 -10 -15z"/>
<path d="M3946 2725 c-5 -13 22 -15 204 -15 139 0 210 4 210 10 0 7 -65 10 -195 8 -107 -2 -195 0 -195 5 0 13 -18 7 -24 -8z"/>
<path d="M4370 2725 c0 -8 5 -15 10 -15 6 0 10 7 10 15 0 8 -4 15 -10 15 -5 0 -10 -7 -10 -15z"/>
<path d="M1022 2618 c-8 -11 32 -13 210 -11 130 1 225 6 231 12 6 6 -65 10 -210 11 -168 0 -223 -2 -231 -12z"/>
<path d="M3242 2618 c-8 -11 32 -13 210 -11 130 1 225 6 231 12 6 6 -65 10 -210 11 -168 0 -223 -2 -231 -12z"/>
<path d="M3902 2618 c-8 -11 32 -13 210 -11 130 1 225 6 231 12 6 6 -65 10 -210 11 -168 0 -223 -2 -231 -12z"/>
<path d="M980 2515 c-7 -8 -10 -19 -6 -22 4 -4 11 -1 16 7 7 10 10 11 10 3 0 -19 376 -19 383 0 4 10 6 10 6 0 1 -19 14 -16 28 6 12 19 7 20 -206 21 -186 0 -220 -2 -231 -15z"/>
<path d="M3203 2524 c-15 -6 -18 -34 -4 -34 5 0 12 6 14 13 4 10 6 10 6 0 1 -18 381 -19 381 -1 0 6 6 4 13 -5 11 -15 13 -15 23 7 l11 25 -216 0 c-119 0 -222 -3 -228 -5z"/>
<path d="M3860 2515 c-7 -8 -10 -19 -6 -22 4 -4 11 -1 16 7 7 10 10 11 10 3 0 -10 45 -13 190 -13 140 0 190 3 190 12 0 6 6 4 13 -5 11 -15 13 -15 23 7 l11 25 -217 1 c-185 0 -219 -2 -230 -15z"/>
<path d="M930 2401 c0 -11 -6 -22 -12 -24 -7 -3 351 -6 795 -6 524 -1 806 2 802 9 -4 6 -200 10 -531 10 -448 0 -529 3 -547 15 -17 12 -64 15 -249 15 -143 0 -228 -4 -228 -10 0 -6 89 -11 233 -13 l232 -2 -237 -3 c-206 -2 -238 0 -238 13 0 8 -4 15 -10 15 -5 0 -10 -9 -10 -19z"/>
<path d="M3144 2395 l-12 -24 227 2 226 2 3 23 c2 12 -1 22 -7 22 -6 0 -11 -8 -11 -17 0 -17 -15 -18 -200 -15 -167 2 -200 5 -200 17 0 23 -14 18 -26 -10z"/>
<path d="M3180 2410 c0 -6 70 -10 190 -10 120 0 190 4 190 10 0 6 -70 10 -190 10 -120 0 -190 -4 -190 -10z"/>
<path d="M3810 2401 c0 -11 -6 -22 -12 -24 -7 -3 351 -6 795 -6 524 -1 806 2 802 9 -4 6 -202 10 -537 10 -456 0 -534 2 -548 15 -14 12 -57 15 -243 15 -142 0 -227 -4 -227 -10 0 -6 87 -11 228 -13 l227 -2 -232 -3 c-202 -2 -233 0 -233 13 0 8 -4 15 -10 15 -5 0 -10 -9 -10 -19z"/>
<path d="M890 2295 l0 -25 799 0 c703 0 800 2 811 15 7 9 10 19 6 22 -4 4 -11 1 -16 -7 -7 -10 -10 -11 -10 -2 0 9 -163 12 -780 12 -736 0 -780 -1 -781 -17 0 -14 -2 -13 -9 5 -12 29 -20 28 -20 -3z"/>
<path d="M3107 2304 c-4 -10 -10 -25 -13 -33 -4 -9 -2 -11 5 -7 6 4 105 7 220 6 177 -1 210 2 221 15 7 8 10 19 6 22 -4 4 -11 1 -16 -7 -7 -10 -10 -11 -10 -2 0 9 -45 12 -190 12 -140 0 -190 -3 -190 -12 0 -6 -6 -4 -13 7 -13 17 -14 17 -20 -1z"/>
<path d="M3770 2295 l0 -25 799 0 c703 0 800 2 811 15 7 9 10 19 6 22 -4 4 -11 1 -16 -7 -7 -10 -10 -11 -10 -2 0 9 -163 12 -780 12 -736 0 -780 -1 -781 -17 0 -14 -2 -13 -9 5 -12 29 -20 28 -20 -3z"/>
<path d="M890 2200 c0 -5 5 -10 10 -10 6 0 10 5 10 10 0 6 -4 10 -10 10 -5 0 -10 -4 -10 -10z"/>
<path d="M916 2194 c-4 -9 -3 -20 0 -23 4 -3 9 0 11 7 6 16 1503 18 1503 2 0 -7 -255 -10 -746 -10 -494 0 -743 -3 -739 -10 4 -7 261 -10 738 -10 770 1 777 1 761 44 -6 15 -73 16 -764 16 -694 0 -758 -1 -764 -16z"/>
<path d="M2450 2200 c0 -5 5 -10 10 -10 6 0 10 5 10 10 0 6 -4 10 -10 10 -5 0 -10 -4 -10 -10z"/>
<path d="M3070 2200 c0 -6 80 -10 203 -10 134 0 197 -4 187 -10 -8 -5 -99 -10 -202 -10 -113 0 -188 -4 -188 -10 0 -5 75 -9 187 -9 l187 0 33 29 33 29 -220 0 c-134 0 -220 -4 -220 -9z"/>
<path d="M3770 2200 c0 -5 5 -10 10 -10 6 0 10 5 10 10 0 6 -4 10 -10 10 -5 0 -10 -4 -10 -10z"/>
<path d="M3796 2194 c-4 -9 -3 -20 0 -23 4 -3 9 0 11 7 6 16 1503 18 1503 2 0 -7 -255 -10 -746 -10 -494 0 -743 -3 -739 -10 4 -7 261 -10 738 -10 770 1 777 1 761 44 -6 15 -73 16 -764 16 -694 0 -758 -1 -764 -16z"/>
<path d="M5330 2200 c0 -5 5 -10 10 -10 6 0 10 5 10 10 0 6 -4 10 -10 10 -5 0 -10 -4 -10 -10z"/>
</g>
</g>
  <g id="id1:id1" transform="matrix(1.25,0,0,1.25,0.0,0.0)"><g transform="translate(0.000000,192.000000) scale(0.040000,-0.040000)" fill="#f7f7f7" stroke="none">
<path d="M1647 3159 c7 -7 15 -10 18 -7 3 3 -2 9 -12 12 -14 6 -15 5 -6 -5z"/>
<path d="M5707 3159 c7 -7 15 -10 18 -7 3 3 -2 9 -12 12 -14 6 -15 5 -6 -5z"/>
<path d="M1210 3066 c0 -2 7 -7 16 -10 8 -3 12 -2 9 4 -6 10 -25 14 -25 6z"/>
<path d="M2250 3066 c0 -2 7 -7 16 -10 8 -3 12 -2 9 4 -6 10 -25 14 -25 6z"/>
<path d="M1090 2733 c0 -5 86 -7 192 -5 148 2 193 0 199 -10 7 -10 9 -8 9 5 0 16 -16 17 -200 17 -110 0 -200 -3 -200 -7z"/>
<path d="M3500 2733 c140 -3 196 -7 202 -16 5 -8 8 -7 8 6 0 16 -15 17 -202 15 l-203 -3 195 -2z"/>
<path d="M3970 2733 c0 -5 86 -7 192 -5 148 2 193 0 199 -10 7 -10 9 -8 9 5 0 16 -16 17 -200 17 -110 0 -200 -3 -200 -7z"/>
<path d="M1128 2603 c56 -2 148 -2 205 0 56 1 10 3 -103 3 -113 0 -159 -2 -102 -3z"/>
<path d="M3358 2603 c57 -2 147 -2 200 0 53 1 7 3 -103 3 -110 0 -154 -2 -97 -3z"/>
<path d="M4008 2603 c56 -2 148 -2 205 0 56 1 10 3 -103 3 -113 0 -159 -2 -102 -3z"/>
<path d="M1380 2501 c0 -10 19 -25 25 -20 1 2 -3 10 -11 17 -8 7 -14 8 -14 3z"/>
<path d="M3600 2501 c0 -6 4 -13 10 -16 6 -3 7 1 4 9 -7 18 -14 21 -14 7z"/>
<path d="M4260 2501 c0 -6 4 -13 10 -16 6 -3 7 1 4 9 -7 18 -14 21 -14 7z"/>
<path d="M950 2408 c0 -17 17 -18 238 -16 l237 3 -230 2 c-168 3 -231 7 -237 16 -5 8 -8 7 -8 -5z"/>
<path d="M3171 2408 c-1 -16 18 -17 199 -20 195 -3 200 -2 199 17 0 11 -3 14 -6 8 -3 -10 -52 -13 -193 -13 -141 0 -190 3 -193 13 -3 7 -6 5 -6 -5z"/>
<path d="M3830 2408 c0 -17 17 -18 233 -16 l232 3 -225 2 c-164 3 -226 7 -232 16 -5 8 -8 7 -8 -5z"/>
<path d="M4300 2416 c0 -2 8 -10 18 -17 15 -13 16 -12 3 4 -13 16 -21 21 -21 13z"/>
<path d="M907 2299 c4 -13 8 -18 11 -10 2 7 -1 18 -6 23 -8 8 -9 4 -5 -13z"/>
<path d="M2485 2309 c-11 -16 -1 -19 13 -3 7 8 8 14 3 14 -5 0 -13 -5 -16 -11z"/>
<path d="M3126 2307 c3 -10 9 -15 12 -12 3 3 0 11 -7 18 -10 9 -11 8 -5 -6z"/>
<path d="M3525 2309 c-11 -16 -1 -19 13 -3 7 8 8 14 3 14 -5 0 -13 -5 -16 -11z"/>
<path d="M3787 2299 c4 -13 8 -18 11 -10 2 7 -1 18 -6 23 -8 8 -9 4 -5 -13z"/>
<path d="M5365 2309 c-11 -16 -1 -19 13 -3 7 8 8 14 3 14 -5 0 -13 -5 -16 -11z"/>
<path d="M2486 2275 c-11 -8 -15 -15 -9 -15 6 0 16 7 23 15 16 19 11 19 -14 0z"/>
<path d="M3526 2275 c-11 -8 -15 -15 -9 -15 6 0 16 7 23 15 16 19 11 19 -14 0z"/>
<path d="M5366 2275 c-11 -8 -15 -15 -9 -15 6 0 16 7 23 15 16 19 11 19 -14 0z"/>
<path d="M3483 2200 c2 -10 -397 -15 -412 -5 -4 2 -7 -4 -8 -13 -1 -15 9 -17 75 -15 242 8 330 7 324 -2 -3 -5 4 -2 16 9 12 10 19 23 16 27 -7 12 -15 11 -11 -1z"/>
<path d="M930 2176 c0 -8 5 -18 12 -22 7 -4 8 -3 4 4 -5 9 177 12 738 12 491 0 746 3 746 10 0 7 -257 10 -750 10 -646 0 -750 -2 -750 -14z"/>
<path d="M3810 2176 c0 -8 5 -18 12 -22 7 -4 8 -3 4 4 -5 9 177 12 738 12 491 0 746 3 746 10 0 7 -257 10 -750 10 -646 0 -750 -2 -750 -14z"/>
</g>
</g>
  <g id="id2:id2" transform="matrix(1.25,0,0,1.25,0.0,0.0)"><g transform="translate(0.000000,192.000000) scale(0.040000,-0.040000)" fill="#eaeaea" stroke="none">
<path d="M1280 3158 c0 -5 84 -7 188 -6 187 2 165 5 -66 10 -67 2 -122 0 -122 -4z"/>
<path d="M2319 3157 c4 -4 340 -6 747 -5 l739 3 -747 5 c-411 3 -744 2 -739 -3z"/>
<path d="M4623 3153 c203 -2 531 -2 730 0 199 1 34 2 -368 2 -401 0 -564 -1 -362 -2z"/>
<path d="M1338 3063 c56 -2 148 -2 205 0 56 1 10 3 -103 3 -113 0 -159 -2 -102 -3z"/>
<path d="M3060 3060 c437 -3 789 -8 782 -12 -7 -3 -8 -6 -1 -4 6 1 10 6 10 11 -1 6 -286 10 -793 10 l-793 0 795 -5z"/>
<path d="M4508 3063 c222 -2 582 -2 800 0 218 1 37 2 -403 2 -440 0 -619 -1 -397 -2z"/>
<path d="M3766 2835 c-11 -8 -15 -15 -9 -15 6 0 16 7 23 15 16 19 11 19 -14 0z"/>
<path d="M3327 2829 c7 -7 15 -10 18 -7 3 3 -2 9 -12 12 -14 6 -15 5 -6 -5z"/>
<path d="M1449 2603 c-13 -16 -12 -17 4 -4 9 7 17 15 17 17 0 8 -8 3 -21 -13z"/>
<path d="M4329 2603 c-13 -16 -12 -17 4 -4 9 7 17 15 17 17 0 8 -8 3 -21 -13z"/>
<path d="M3240 2600 c-9 -6 -10 -10 -3 -10 6 0 15 5 18 10 8 12 4 12 -15 0z"/>
<path d="M3660 2600 c-9 -6 -10 -10 -3 -10 6 0 15 5 18 10 8 12 4 12 -15 0z"/>
<path d="M1415 2509 c-4 -6 -5 -12 -2 -15 2 -3 7 2 10 11 7 17 1 20 -8 4z"/>
<path d="M1083 2483 c59 -2 154 -2 210 0 56 1 8 3 -108 3 -115 0 -161 -2 -102 -3z"/>
<path d="M3303 2483 c59 -2 154 -2 210 0 56 1 8 3 -108 3 -115 0 -161 -2 -102 -3z"/>
<path d="M3963 2483 c59 -2 154 -2 210 0 56 1 8 3 -108 3 -115 0 -161 -2 -102 -3z"/>
<path d="M4327 2399 c7 -7 15 -10 18 -7 3 3 -2 9 -12 12 -14 6 -15 5 -6 -5z"/>
<path d="M1302 2313 c219 -2 577 -2 795 0 219 1 40 2 -397 2 -437 0 -616 -1 -398 -2z"/>
<path d="M3228 2313 c56 -2 148 -2 205 0 56 1 10 3 -103 3 -113 0 -159 -2 -102 -3z"/>
<path d="M4182 2313 c219 -2 577 -2 795 0 219 1 40 2 -397 2 -437 0 -616 -1 -398 -2z"/>
<path d="M1278 2263 c222 -2 582 -2 800 0 218 1 37 2 -403 2 -440 0 -619 -1 -397 -2z"/>
<path d="M3208 2263 c56 -2 148 -2 205 0 56 1 10 3 -103 3 -113 0 -159 -2 -102 -3z"/>
<path d="M4158 2263 c222 -2 582 -2 800 0 218 1 37 2 -403 2 -440 0 -619 -1 -397 -2z"/>
<path d="M3067 2149 c7 -7 15 -10 18 -7 3 3 -2 9 -12 12 -14 6 -15 5 -6 -5z"/>
</g>
</g>
  <g id="id3:id3" transform="matrix(1.25,0,0,1.25,0.0,0.0)"><g transform="translate(0.000000,192.000000) scale(0.040000,-0.040000)" fill="#dadada" stroke="none">
<path d="M1662 3166 c7 -8 15 -12 17 -11 5 6 -10 25 -20 25 -5 0 -4 -6 3 -14z"/>
<path d="M1323 3043 c59 -2 154 -2 210 0 56 1 8 3 -108 3 -115 0 -161 -2 -102 -3z"/>
<path d="M2647 3043 c215 -2 571 -2 790 0 219 1 43 2 -392 2 -434 0 -614 -1 -398 -2z"/>
<path d="M4502 3043 c219 -2 577 -2 795 0 219 1 40 2 -397 2 -437 0 -616 -1 -398 -2z"/>
<path d="M1273 2953 c59 -2 154 -2 210 0 56 1 8 3 -108 3 -115 0 -161 -2 -102 -3z"/>
<path d="M2628 2953 c215 -2 569 -2 785 0 215 1 39 2 -393 2 -432 0 -608 -1 -392 -2z"/>
<path d="M4442 2953 c219 -2 577 -2 795 0 219 1 40 2 -397 2 -437 0 -616 -1 -398 -2z"/>
<path d="M1147 2929 c7 -7 15 -10 18 -7 3 3 -2 9 -12 12 -14 6 -15 5 -6 -5z"/>
<path d="M4027 2929 c7 -7 15 -10 18 -7 3 3 -2 9 -12 12 -14 6 -15 5 -6 -5z"/>
<path d="M1228 2823 c56 -2 148 -2 205 0 56 1 10 3 -103 3 -113 0 -159 -2 -102 -3z"/>
<path d="M3448 2823 c56 -2 148 -2 205 0 56 1 10 3 -103 3 -113 0 -159 -2 -102 -3z"/>
<path d="M4108 2823 c56 -2 148 -2 205 0 56 1 10 3 -103 3 -113 0 -159 -2 -102 -3z"/>
<path d="M1192 2743 c59 -2 158 -2 220 0 62 1 14 3 -107 3 -121 0 -172 -2 -113 -3z"/>
<path d="M3413 2743 c59 -2 154 -2 210 0 56 1 8 3 -108 3 -115 0 -161 -2 -102 -3z"/>
<path d="M3731 2734 c0 -11 3 -14 6 -6 3 7 2 16 -1 19 -3 4 -6 -2 -5 -13z"/>
<path d="M4073 2743 c59 -2 154 -2 210 0 56 1 8 3 -108 3 -115 0 -161 -2 -102 -3z"/>
<path d="M1059 2707 c4 -4 106 -6 227 -5 l219 3 -227 5 c-125 3 -224 2 -219 -3z"/>
<path d="M3939 2707 c4 -4 106 -6 227 -5 l219 3 -227 5 c-125 3 -224 2 -219 -3z"/>
<path d="M3383 2703 c65 -2 168 -2 230 0 62 1 9 3 -118 3 -126 0 -177 -2 -112 -3z"/>
<path d="M1143 2633 c59 -2 154 -2 210 0 56 1 8 3 -108 3 -115 0 -161 -2 -102 -3z"/>
<path d="M3363 2633 c59 -2 154 -2 210 0 56 1 8 3 -108 3 -115 0 -161 -2 -102 -3z"/>
<path d="M4023 2633 c59 -2 154 -2 210 0 56 1 8 3 -108 3 -115 0 -161 -2 -102 -3z"/>
<path d="M1133 2593 c59 -2 154 -2 210 0 56 1 8 3 -108 3 -115 0 -161 -2 -102 -3z"/>
<path d="M3348 2593 c56 -2 148 -2 205 0 56 1 10 3 -103 3 -113 0 -159 -2 -102 -3z"/>
<path d="M4013 2593 c59 -2 154 -2 210 0 56 1 8 3 -108 3 -115 0 -161 -2 -102 -3z"/>
<path d="M961 2494 c0 -11 3 -14 6 -6 3 7 2 16 -1 19 -3 4 -6 -2 -5 -13z"/>
<path d="M3841 2494 c0 -11 3 -14 6 -6 3 7 2 16 -1 19 -3 4 -6 -2 -5 -13z"/>
<path d="M1068 2423 c68 -2 176 -2 240 0 64 1 9 3 -123 3 -132 0 -185 -2 -117 -3z"/>
<path d="M3272 2423 c59 -2 158 -2 220 0 62 1 14 3 -107 3 -121 0 -172 -2 -113 -3z"/>
<path d="M3938 2423 c61 -2 163 -2 225 0 61 1 11 3 -113 3 -124 0 -174 -2 -112 -3z"/>
<path d="M1728 2393 c145 -2 379 -2 520 0 141 1 23 2 -263 2 -286 0 -402 -1 -257 -2z"/>
<path d="M4608 2393 c145 -2 379 -2 520 0 141 1 23 2 -263 2 -286 0 -402 -1 -257 -2z"/>
<path d="M3503 2205 c0 -8 4 -12 9 -9 5 3 6 10 3 15 -9 13 -12 11 -12 -6z"/>
<path d="M1313 2143 c202 -2 532 -2 735 0 202 1 36 2 -368 2 -404 0 -570 -1 -367 -2z"/>
<path d="M3178 2143 c50 -2 134 -2 185 0 50 1 9 3 -93 3 -102 0 -143 -2 -92 -3z"/>
<path d="M4193 2143 c202 -2 532 -2 735 0 202 1 36 2 -368 2 -404 0 -570 -1 -367 -2z"/>
</g>
</g>
  <g id="id4:id4" transform="matrix(1.25,0,0,1.25,0.0,0.0)"><g transform="translate(0.000000,192.000000) scale(0.040000,-0.040000)" fill="#c7c7c7" stroke="none">
<path d="M1378 3173 c50 -2 134 -2 185 0 50 1 9 3 -93 3 -102 0 -143 -2 -92 -3z"/>
<path d="M2682 3173 c201 -2 534 -2 740 0 205 1 40 2 -367 2 -407 0 -575 -1 -373 -2z"/>
<path d="M4628 3173 c199 -2 525 -2 725 0 199 1 36 2 -363 2 -399 0 -562 -1 -362 -2z"/>
<path d="M1283 2923 c54 -2 139 -2 190 0 51 1 7 3 -98 3 -104 0 -146 -2 -92 -3z"/>
<path d="M2638 2923 c210 -2 554 -2 765 0 210 1 38 2 -383 2 -421 0 -593 -1 -382 -2z"/>
<path d="M4453 2923 c214 -2 560 -2 770 0 210 1 36 2 -388 2 -423 0 -595 -1 -382 -2z"/>
<path d="M1228 2853 c61 -2 163 -2 225 0 61 1 11 3 -113 3 -124 0 -174 -2 -112 -3z"/>
<path d="M3463 2853 c59 -2 155 -2 215 0 59 1 10 3 -108 3 -118 0 -167 -2 -107 -3z"/>
<path d="M4103 2853 c59 -2 155 -2 215 0 59 1 10 3 -108 3 -118 0 -167 -2 -107 -3z"/>
<path d="M4439 2833 c-13 -16 -12 -17 4 -4 16 13 21 21 13 21 -2 0 -10 -8 -17 -17z"/>
<path d="M1103 2533 c59 -2 154 -2 210 0 56 1 8 3 -108 3 -115 0 -161 -2 -102 -3z"/>
<path d="M3313 2533 c59 -2 155 -2 215 0 59 1 10 3 -108 3 -118 0 -167 -2 -107 -3z"/>
<path d="M3983 2533 c59 -2 154 -2 210 0 56 1 8 3 -108 3 -115 0 -161 -2 -102 -3z"/>
<path d="M3127 2369 c7 -7 15 -10 18 -7 3 3 -2 9 -12 12 -14 6 -15 5 -6 -5z"/>
<path d="M1073 2363 c71 -2 183 -2 250 0 67 1 10 3 -128 3 -137 0 -192 -2 -122 -3z"/>
<path d="M3258 2363 c50 -2 134 -2 185 0 50 1 9 3 -93 3 -102 0 -143 -2 -92 -3z"/>
<path d="M3953 2363 c71 -2 183 -2 250 0 67 1 10 3 -128 3 -137 0 -192 -2 -122 -3z"/>
<path d="M1303 2213 c207 -2 547 -2 755 0 207 1 37 2 -378 2 -415 0 -585 -1 -377 -2z"/>
<path d="M3172 2213 c37 -2 100 -2 140 0 40 1 10 3 -67 3 -77 0 -110 -1 -73 -3z"/>
<path d="M3448 2213 c7 -3 16 -2 19 1 4 3 -2 6 -13 5 -11 0 -14 -3 -6 -6z"/>
<path d="M4183 2213 c207 -2 547 -2 755 0 207 1 37 2 -378 2 -415 0 -585 -1 -377 -2z"/>
<path d="M3051 2174 c0 -11 3 -14 6 -6 3 7 2 16 -1 19 -3 4 -6 -2 -5 -13z"/>
<path d="M3479 2173 c-13 -16 -12 -17 4 -4 16 13 21 21 13 21 -2 0 -10 -8 -17 -17z"/>
</g>
</g>
  <g id="id5:id5" transform="matrix(1.25,0,0,1.25,0.0,0.0)"><g transform="translate(0.000000,192.000000) scale(0.040000,-0.040000)" fill="#bebebe" stroke="none">
<path d="M4085 3059 c-4 -6 -5 -12 -2 -15 2 -3 7 2 10 11 7 17 1 20 -8 4z"/>
<path d="M1702 2363 c147 -2 390 -2 540 0 150 1 30 2 -267 2 -297 0 -420 -1 -273 -2z"/>
<path d="M4582 2363 c147 -2 390 -2 540 0 150 1 30 2 -267 2 -297 0 -420 -1 -273 -2z"/>
</g>
</g>
  <g id="id6:id6" transform="matrix(1.25,0,0,1.25,0.0,0.0)"><g transform="translate(0.000000,192.000000) scale(0.040000,-0.040000)" fill="#a6a6a6" stroke="none">
<path d="M1271 3166 c-9 -11 -9 -16 1 -22 7 -4 10 -4 6 1 -4 4 -3 14 3 22 6 7 9 13 6 13 -2 0 -10 -6 -16 -14z"/>
<path d="M4220 3150 c0 -6 7 -10 15 -10 8 0 15 2 15 4 0 2 -7 6 -15 10 -8 3 -15 1 -15 -4z"/>
<path d="M1218 2813 c61 -2 163 -2 225 0 61 1 11 3 -113 3 -124 0 -174 -2 -112 -3z"/>
<path d="M3438 2813 c61 -2 163 -2 225 0 61 1 11 3 -113 3 -124 0 -174 -2 -112 -3z"/>
<path d="M4098 2813 c61 -2 163 -2 225 0 61 1 11 3 -113 3 -124 0 -174 -2 -112 -3z"/>
<path d="M959 2477 c4 -4 108 -6 232 -5 l224 3 -232 5 c-128 3 -229 2 -224 -3z"/>
<path d="M3179 2477 c4 -4 108 -6 232 -5 l224 3 -232 5 c-128 3 -229 2 -224 -3z"/>
<path d="M3839 2477 c4 -4 106 -6 227 -5 l219 3 -227 5 c-125 3 -224 2 -219 -3z"/>
<path d="M1180 2323 c771 -7 1348 -7 1343 0 -2 4 -372 6 -821 5 -449 -2 -684 -4 -522 -5z"/>
<path d="M3185 2323 c198 -7 383 -7 378 0 -2 4 -106 6 -231 5 -125 -1 -191 -3 -147 -5z"/>
<path d="M4060 2323 c771 -7 1348 -7 1343 0 -2 4 -372 6 -821 5 -449 -2 -684 -4 -522 -5z"/>
<path d="M1273 2253 c224 -2 590 -2 815 0 224 1 40 2 -408 2 -448 0 -632 -1 -407 -2z"/>
<path d="M3202 2253 c59 -2 158 -2 220 0 62 1 14 3 -107 3 -121 0 -172 -2 -113 -3z"/>
<path d="M4153 2253 c224 -2 590 -2 815 0 224 1 40 2 -408 2 -448 0 -632 -1 -407 -2z"/>
</g>
</g>
  <g id="id7:id7" transform="matrix(1.25,0,0,1.25,0.0,0.0)"><g transform="translate(0.000000,192.000000) scale(0.040000,-0.040000)" fill="#888888" stroke="none">
<path d="M1680 3162 c0 -9 -56 -13 -202 -14 l-203 -3 199 -2 c186 -3 234 2 213 24 -4 3 -7 1 -7 -5z"/>
<path d="M3065 3150 l-760 -5 763 -3 c503 -1 762 1 762 8 0 6 -1 9 -2 8 -2 -2 -345 -5 -763 -8z"/>
<path d="M4623 3143 c208 -2 546 -2 750 0 205 1 35 2 -378 2 -412 0 -580 -1 -372 -2z"/>
<path d="M1318 3073 c61 -2 163 -2 225 0 61 1 11 3 -113 3 -124 0 -174 -2 -112 -3z"/>
<path d="M2653 3073 c225 -2 589 -2 810 0 221 1 38 2 -408 2 -445 0 -626 -1 -402 -2z"/>
<path d="M4508 3073 c221 -2 583 -2 805 0 221 1 40 2 -403 2 -443 0 -624 -1 -402 -2z"/>
<path d="M3310 2836 c0 -8 4 -17 9 -20 5 -4 7 3 4 14 -6 23 -13 26 -13 6z"/>
<path d="M1183 2753 c65 -2 168 -2 230 0 62 1 9 3 -118 3 -126 0 -177 -2 -112 -3z"/>
<path d="M3403 2753 c65 -2 168 -2 230 0 62 1 9 3 -118 3 -126 0 -177 -2 -112 -3z"/>
<path d="M4063 2753 c65 -2 168 -2 230 0 62 1 9 3 -118 3 -126 0 -177 -2 -112 -3z"/>
<path d="M1113 2583 c65 -2 168 -2 230 0 62 1 9 3 -118 3 -126 0 -177 -2 -112 -3z"/>
<path d="M3333 2583 c65 -2 168 -2 230 0 62 1 9 3 -118 3 -126 0 -177 -2 -112 -3z"/>
<path d="M3993 2583 c65 -2 168 -2 230 0 62 1 9 3 -118 3 -126 0 -177 -2 -112 -3z"/>
<path d="M927 2433 c-3 -5 70 -7 161 -5 308 4 339 8 90 10 -136 1 -249 -1 -251 -5z"/>
<path d="M3235 2433 c198 -7 383 -7 378 0 -2 4 -106 6 -231 5 -125 -1 -191 -3 -147 -5z"/>
<path d="M3807 2433 c-3 -5 68 -7 156 -5 302 4 333 8 90 10 -133 1 -244 -1 -246 -5z"/>
<path d="M1478 2403 c7 -3 16 -2 19 1 4 3 -2 6 -13 5 -11 0 -14 -3 -6 -6z"/>
<path d="M4358 2403 c7 -3 16 -2 19 1 4 3 -2 6 -13 5 -11 0 -14 -3 -6 -6z"/>
<path d="M2521 2383 c7 -12 15 -20 18 -17 3 2 -3 12 -13 22 -17 16 -18 16 -5 -5z"/>
<path d="M5401 2383 c7 -12 15 -20 18 -17 3 2 -3 12 -13 22 -17 16 -18 16 -5 -5z"/>
</g>
</g>
  <g id="id8:id8" transform="matrix(1.25,0,0,1.25,0.0,0.0)"><g transform="translate(0.000000,192.000000) scale(0.040000,-0.040000)" fill="#757575" stroke="none">
<path d="M1318 3033 c61 -2 163 -2 225 0 61 1 11 3 -113 3 -124 0 -174 -2 -112 -3z"/>
<path d="M2648 3033 c221 -2 583 -2 805 0 221 1 40 2 -403 2 -443 0 -624 -1 -402 -2z"/>
<path d="M4493 3033 c224 -2 590 -2 815 0 224 1 40 2 -408 2 -448 0 -632 -1 -407 -2z"/>
<path d="M1183 2693 c59 -2 154 -2 210 0 56 1 8 3 -108 3 -115 0 -161 -2 -102 -3z"/>
<path d="M3403 2693 c59 -2 154 -2 210 0 56 1 8 3 -108 3 -115 0 -161 -2 -102 -3z"/>
<path d="M4063 2693 c59 -2 154 -2 210 0 56 1 8 3 -108 3 -115 0 -161 -2 -102 -3z"/>
<path d="M1153 2643 c53 -2 141 -2 195 0 53 1 9 3 -98 3 -107 0 -151 -2 -97 -3z"/>
<path d="M3373 2643 c53 -2 141 -2 195 0 53 1 9 3 -98 3 -107 0 -151 -2 -97 -3z"/>
<path d="M4033 2643 c53 -2 141 -2 195 0 53 1 9 3 -98 3 -107 0 -151 -2 -97 -3z"/>
<path d="M3118 2133 c6 -2 18 -2 25 0 6 3 1 5 -13 5 -14 0 -19 -2 -12 -5z"/>
</g>
</g>
  <g id="id9:id9" transform="matrix(1.25,0,0,1.25,0.0,0.0)"><g transform="translate(0.000000,192.000000) scale(0.040000,-0.040000)" fill="#707070" stroke="none">
<path d="M1288 2963 c56 -2 148 -2 205 0 56 1 10 3 -103 3 -113 0 -159 -2 -102 -3z"/>
<path d="M2622 2963 c219 -2 577 -2 795 0 219 1 40 2 -397 2 -437 0 -616 -1 -398 -2z"/>
<path d="M4458 2963 c217 -2 568 -2 780 0 213 1 36 2 -393 2 -429 0 -603 -1 -387 -2z"/>
<path d="M1748 2403 c133 -2 351 -2 485 0 133 1 24 2 -243 2 -267 0 -376 -1 -242 -2z"/>
<path d="M4628 2403 c133 -2 351 -2 485 0 133 1 24 2 -243 2 -267 0 -376 -1 -242 -2z"/>
<path d="M1332 2133 c192 -2 504 -2 695 0 192 1 35 2 -347 2 -382 0 -539 -1 -348 -2z"/>
<path d="M3213 2133 c37 -2 97 -2 135 0 37 2 6 3 -68 3 -74 0 -105 -1 -67 -3z"/>
<path d="M4212 2133 c192 -2 504 -2 695 0 192 1 35 2 -347 2 -382 0 -539 -1 -348 -2z"/>
</g>
</g>
  <g id="id10:id10" transform="matrix(1.25,0,0,1.25,0.0,0.0)"><g transform="translate(0.000000,192.000000) scale(0.040000,-0.040000)" fill="#535353" stroke="none">
<path d="M3866 3067 c3 -10 9 -15 12 -12 3 3 0 11 -7 18 -10 9 -11 8 -5 -6z"/>
<path d="M1180 3051 c0 -6 4 -13 10 -16 6 -3 7 1 4 9 -7 18 -14 21 -14 7z"/>
<path d="M2220 3051 c0 -6 4 -13 10 -16 6 -3 7 1 4 9 -7 18 -14 21 -14 7z"/>
<path d="M1213 2803 c65 -2 168 -2 230 0 62 1 9 3 -118 3 -126 0 -177 -2 -112 -3z"/>
<path d="M3433 2803 c65 -2 168 -2 230 0 62 1 9 3 -118 3 -126 0 -177 -2 -112 -3z"/>
<path d="M4093 2803 c65 -2 168 -2 230 0 62 1 9 3 -118 3 -126 0 -177 -2 -112 -3z"/>
<path d="M940 2481 c0 -10 19 -25 25 -20 1 2 -3 10 -11 17 -8 7 -14 8 -14 3z"/>
<path d="M3820 2481 c0 -10 19 -25 25 -20 1 2 -3 10 -11 17 -8 7 -14 8 -14 3z"/>
<path d="M3071 2264 c0 -11 3 -14 6 -6 3 7 2 16 -1 19 -3 4 -6 -2 -5 -13z"/>
</g>
</g>
  <g id="id11:id11" transform="matrix(1.25,0,0,1.25,0.0,0.0)"><g transform="translate(0.000000,192.000000) scale(0.040000,-0.040000)" fill="#3b3b3b" stroke="none">
<path d="M1383 3183 c53 -2 141 -2 195 0 53 1 9 3 -98 3 -107 0 -151 -2 -97 -3z"/>
<path d="M2682 3183 c201 -2 534 -2 740 0 205 1 40 2 -367 2 -407 0 -575 -1 -373 -2z"/>
<path d="M4633 3183 c202 -2 532 -2 735 0 202 1 36 2 -368 2 -404 0 -570 -1 -367 -2z"/>
<path d="M1283 2913 c54 -2 139 -2 190 0 51 1 7 3 -98 3 -104 0 -146 -2 -92 -3z"/>
<path d="M2622 2913 c219 -2 577 -2 795 0 219 1 40 2 -397 2 -437 0 -616 -1 -398 -2z"/>
<path d="M4453 2913 c214 -2 560 -2 770 0 210 1 36 2 -388 2 -423 0 -595 -1 -382 -2z"/>
<path d="M1233 2863 c65 -2 168 -2 230 0 62 1 9 3 -118 3 -126 0 -177 -2 -112 -3z"/>
<path d="M3462 2863 c59 -2 158 -2 220 0 62 1 14 3 -107 3 -121 0 -172 -2 -113 -3z"/>
<path d="M4103 2863 c59 -2 155 -2 215 0 59 1 10 3 -108 3 -118 0 -167 -2 -107 -3z"/>
<path d="M3300 2826 c0 -8 4 -17 9 -20 5 -4 7 3 4 14 -6 23 -13 26 -13 6z"/>
<path d="M1210 2543 c163 -3 226 -7 233 -16 6 -9 7 -8 4 3 -3 13 -38 15 -233 15 l-229 1 225 -3z"/>
<path d="M3430 2543 c163 -3 226 -7 233 -16 6 -9 7 -8 4 3 -3 13 -38 15 -233 15 l-229 1 225 -3z"/>
<path d="M4090 2543 c163 -3 226 -7 233 -16 6 -9 7 -8 4 3 -3 13 -38 15 -233 15 l-229 1 225 -3z"/>
<path d="M1073 2463 c59 -2 155 -2 215 0 59 1 10 3 -108 3 -118 0 -167 -2 -107 -3z"/>
<path d="M3282 2463 c59 -2 158 -2 220 0 62 1 14 3 -107 3 -121 0 -172 -2 -113 -3z"/>
<path d="M3953 2463 c59 -2 155 -2 215 0 59 1 10 3 -108 3 -118 0 -167 -2 -107 -3z"/>
<path d="M1312 2333 c223 -2 592 -2 820 0 227 1 44 2 -407 2 -451 0 -637 -1 -413 -2z"/>
<path d="M3238 2333 c61 -2 163 -2 225 0 61 1 11 3 -113 3 -124 0 -174 -2 -112 -3z"/>
<path d="M4192 2333 c223 -2 592 -2 820 0 227 1 44 2 -407 2 -451 0 -637 -1 -413 -2z"/>
<path d="M1278 2243 c221 -2 583 -2 805 0 221 1 40 2 -403 2 -443 0 -624 -1 -402 -2z"/>
<path d="M3188 2243 c61 -2 163 -2 225 0 61 1 11 3 -113 3 -124 0 -174 -2 -112 -3z"/>
<path d="M4158 2243 c221 -2 583 -2 805 0 221 1 40 2 -403 2 -443 0 -624 -1 -402 -2z"/>
</g>
</g>
  <g id="id12:id12" transform="matrix(1.25,0,0,1.25,0.0,0.0)"><g transform="translate(0.000000,192.000000) scale(0.040000,-0.040000)" fill="#2c2c2c" stroke="none">
<path d="M4228 3133 c7 -3 16 -2 19 1 4 3 -2 6 -13 5 -11 0 -14 -3 -6 -6z"/>
<path d="M1621 2954 c0 -11 3 -14 6 -6 3 7 2 16 -1 19 -3 4 -6 -2 -5 -13z"/>
<path d="M2191 2954 c0 -11 3 -14 6 -6 3 7 2 16 -1 19 -3 4 -6 -2 -5 -13z"/>
<path d="M1193 2763 c54 -2 139 -2 190 0 51 1 7 3 -98 3 -104 0 -146 -2 -92 -3z"/>
<path d="M1498 2763 c7 -3 16 -2 19 1 4 3 -2 6 -13 5 -11 0 -14 -3 -6 -6z"/>
<path d="M3428 2763 c56 -2 148 -2 205 0 56 1 10 3 -103 3 -113 0 -159 -2 -102 -3z"/>
<path d="M4073 2763 c53 -2 141 -2 195 0 53 1 9 3 -98 3 -107 0 -151 -2 -97 -3z"/>
<path d="M1113 2573 c65 -2 168 -2 230 0 62 1 9 3 -118 3 -126 0 -177 -2 -112 -3z"/>
<path d="M3333 2573 c65 -2 168 -2 230 0 62 1 9 3 -118 3 -126 0 -177 -2 -112 -3z"/>
<path d="M3993 2573 c65 -2 168 -2 230 0 62 1 9 3 -118 3 -126 0 -177 -2 -112 -3z"/>
<path d="M1323 2353 c225 -2 589 -2 810 0 221 1 38 2 -408 2 -445 0 -626 -1 -402 -2z"/>
<path d="M3248 2353 c61 -2 163 -2 225 0 61 1 11 3 -113 3 -124 0 -174 -2 -112 -3z"/>
<path d="M4203 2353 c225 -2 589 -2 810 0 221 1 38 2 -408 2 -445 0 -626 -1 -402 -2z"/>
<path d="M1272 2223 c219 -2 577 -2 795 0 219 1 40 2 -397 2 -437 0 -616 -1 -398 -2z"/>
<path d="M3168 2223 c61 -2 163 -2 225 0 61 1 11 3 -113 3 -124 0 -174 -2 -112 -3z"/>
<path d="M4152 2223 c219 -2 577 -2 795 0 219 1 40 2 -397 2 -437 0 -616 -1 -398 -2z"/>
<path d="M3509 2183 c-13 -16 -12 -17 4 -4 16 13 21 21 13 21 -2 0 -10 -8 -17 -17z"/>
</g>
</g>
  <g id="id13:id13" transform="matrix(1.25,0,0,1.25,0.0,0.0)"><g transform="translate(0.000000,192.000000) scale(0.040000,-0.040000)" fill="#212121" stroke="none">
<path d="M2289 3173 c-13 -16 -12 -17 4 -4 9 7 17 15 17 17 0 8 -8 3 -21 -13z"/>
<path d="M4190 3151 c0 -10 19 -25 25 -20 1 2 -3 10 -11 17 -8 7 -14 8 -14 3z"/>
<path d="M1383 3133 c59 -2 154 -2 210 0 56 1 8 3 -108 3 -115 0 -161 -2 -102 -3z"/>
<path d="M2683 3133 c208 -2 546 -2 750 0 205 1 35 2 -378 2 -412 0 -580 -1 -372 -2z"/>
<path d="M4623 3133 c207 -2 547 -2 755 0 207 1 37 2 -378 2 -415 0 -585 -1 -377 -2z"/>
<path d="M1318 3083 c68 -2 176 -2 240 0 64 1 9 3 -123 3 -132 0 -185 -2 -117 -3z"/>
<path d="M2642 3083 c223 -2 592 -2 820 0 227 1 44 2 -407 2 -451 0 -637 -1 -413 -2z"/>
<path d="M4502 3083 c223 -2 592 -2 820 0 227 1 44 2 -407 2 -451 0 -637 -1 -413 -2z"/>
<path d="M1303 3023 c65 -2 168 -2 230 0 62 1 9 3 -118 3 -126 0 -177 -2 -112 -3z"/>
<path d="M2632 3023 c223 -2 592 -2 820 0 227 1 44 2 -407 2 -451 0 -637 -1 -413 -2z"/>
<path d="M4472 3023 c223 -2 592 -2 820 0 227 1 44 2 -407 2 -451 0 -637 -1 -413 -2z"/>
<path d="M1272 2973 c65 -2 171 -2 236 0 64 1 11 3 -118 3 -129 0 -182 -2 -118 -3z"/>
<path d="M2490 2973 c770 -7 1358 -7 1353 0 -2 4 -374 6 -826 5 -452 -2 -689 -4 -527 -5z"/>
<path d="M4443 2973 c224 -2 590 -2 815 0 224 1 40 2 -408 2 -448 0 -632 -1 -407 -2z"/>
<path d="M1056 2761 c-3 -4 6 -6 19 -3 14 2 25 6 25 8 0 8 -39 4 -44 -5z"/>
<path d="M3276 2762 c-3 -5 8 -6 25 -4 16 2 29 6 29 8 0 8 -49 4 -54 -4z"/>
<path d="M3738 2763 c7 -3 16 -2 19 1 4 3 -2 6 -13 5 -11 0 -14 -3 -6 -6z"/>
<path d="M3936 2761 c-3 -4 6 -6 19 -3 14 2 25 6 25 8 0 8 -39 4 -44 -5z"/>
<path d="M1030 2706 c0 -8 4 -17 9 -20 5 -4 7 3 4 14 -6 23 -13 26 -13 6z"/>
<path d="M3910 2706 c0 -8 4 -17 9 -20 5 -4 7 3 4 14 -6 23 -13 26 -13 6z"/>
<path d="M3253 2700 c3 -13 38 -15 238 -15 l234 -1 -230 3 c-167 3 -231 7 -238 16 -6 9 -7 8 -4 -3z"/>
<path d="M1168 2683 c61 -2 163 -2 225 0 61 1 11 3 -113 3 -124 0 -174 -2 -112 -3z"/>
<path d="M4048 2683 c61 -2 163 -2 225 0 61 1 11 3 -113 3 -124 0 -174 -2 -112 -3z"/>
<path d="M1100 2653 c212 -7 398 -7 393 0 -2 4 -111 6 -241 5 -130 -1 -199 -3 -152 -5z"/>
<path d="M3353 2653 c64 -2 170 -2 235 0 64 1 11 3 -118 3 -129 0 -182 -2 -117 -3z"/>
<path d="M3980 2653 c212 -7 398 -7 393 0 -2 4 -111 6 -241 5 -130 -1 -199 -3 -152 -5z"/>
<path d="M1053 2443 c70 -2 184 -2 255 0 70 1 12 3 -128 3 -140 0 -198 -2 -127 -3z"/>
<path d="M3263 2443 c64 -2 170 -2 235 0 64 1 11 3 -118 3 -129 0 -182 -2 -117 -3z"/>
<path d="M3933 2443 c71 -2 183 -2 250 0 67 1 10 3 -128 3 -137 0 -192 -2 -122 -3z"/>
<path d="M1758 2413 c139 -2 364 -2 500 0 136 1 22 2 -253 2 -275 0 -386 -1 -247 -2z"/>
<path d="M4638 2413 c139 -2 364 -2 500 0 136 1 22 2 -253 2 -275 0 -386 -1 -247 -2z"/>
<path d="M2536 2363 c-6 -14 -5 -15 5 -6 7 7 10 15 7 18 -3 3 -9 -2 -12 -12z"/>
<path d="M5416 2363 c-6 -14 -5 -15 5 -6 7 7 10 15 7 18 -3 3 -9 -2 -12 -12z"/>
<path d="M851 2264 c0 -11 3 -14 6 -6 3 7 2 16 -1 19 -3 4 -6 -2 -5 -13z"/>
<path d="M3731 2264 c0 -11 3 -14 6 -6 3 7 2 16 -1 19 -3 4 -6 -2 -5 -13z"/>
<path d="M3032 2180 c0 -14 2 -19 5 -12 2 6 2 18 0 25 -3 6 -5 1 -5 -13z"/>
<path d="M1323 2123 c203 -2 531 -2 730 0 199 1 34 2 -368 2 -401 0 -564 -1 -362 -2z"/>
<path d="M3168 2123 c50 -2 134 -2 185 0 50 1 9 3 -93 3 -102 0 -143 -2 -92 -3z"/>
<path d="M4203 2123 c203 -2 531 -2 730 0 199 1 34 2 -368 2 -401 0 -564 -1 -362 -2z"/>
</g>
</g>
  <g id="id14:id14" transform="matrix(1.25,0,0,1.25,0.0,0.0)"><g transform="translate(0.000000,192.000000) scale(0.040000,-0.040000)" fill="#0c0c0c" stroke="none">
<path d="M1388 3213 c57 -2 147 -2 200 0 53 1 7 3 -103 3 -110 0 -154 -2 -97 -3z"/>
<path d="M2683 3213 c208 -2 546 -2 750 0 205 1 35 2 -378 2 -412 0 -580 -1 -372 -2z"/>
<path d="M4628 3213 c204 -2 540 -2 745 0 204 1 37 2 -373 2 -410 0 -577 -1 -372 -2z"/>
<path d="M1245 3170 c-15 -17 -16 -23 -5 -33 10 -9 11 -9 5 1 -4 8 0 21 11 33 9 10 15 19 12 19 -3 0 -13 -9 -23 -20z"/>
<path d="M1689 3178 c7 -10 11 -25 7 -33 -3 -9 -2 -13 4 -10 15 10 12 31 -7 46 -16 13 -17 12 -4 -3z"/>
<path d="M3826 3168 c10 -14 21 -24 23 -22 3 3 -6 15 -18 27 l-24 22 19 -27z"/>
<path d="M4225 3180 c-3 -6 1 -7 9 -4 18 7 21 14 7 14 -6 0 -13 -4 -16 -10z"/>
<path d="M5757 3151 c-4 -17 -3 -21 5 -13 5 5 8 16 6 23 -3 8 -7 3 -11 -10z"/>
<path d="M1674 3070 c0 -13 4 -16 10 -10 7 7 7 13 0 20 -6 6 -10 3 -10 -10z"/>
<path d="M3878 3065 c3 -17 -1 -31 -9 -37 -12 -8 -11 -9 1 -5 18 4 26 45 12 59 -6 6 -8 0 -4 -17z"/>
<path d="M4075 3080 c-3 -6 1 -7 9 -4 18 7 21 14 7 14 -6 0 -13 -4 -16 -10z"/>
<path d="M5734 3070 c0 -13 4 -16 10 -10 7 7 7 13 0 20 -6 6 -10 3 -10 -10z"/>
<path d="M1171 3049 c-1 -9 7 -23 17 -30 15 -12 16 -12 6 1 -6 8 -14 22 -17 30 -5 13 -6 12 -6 -1z"/>
<path d="M2211 3049 c-1 -9 7 -23 17 -30 15 -12 16 -12 6 1 -6 8 -14 22 -17 30 -5 13 -6 12 -6 -1z"/>
<path d="M4061 3033 c-1 -16 5 -23 17 -23 10 0 13 3 6 8 -6 4 -14 14 -17 22 -4 10 -6 8 -6 -7z"/>
<path d="M1650 3030 c-9 -6 -10 -10 -3 -10 6 0 15 5 18 10 8 12 4 12 -15 0z"/>
<path d="M5710 3030 c-9 -6 -10 -10 -3 -10 6 0 15 5 18 10 8 12 4 12 -15 0z"/>
<path d="M1615 2980 c3 -5 11 -10 16 -10 6 0 7 5 4 10 -3 6 -11 10 -16 10 -6 0 -7 -4 -4 -10z"/>
<path d="M3835 2980 c3 -5 11 -10 16 -10 6 0 7 5 4 10 -3 6 -11 10 -16 10 -6 0 -7 -4 -4 -10z"/>
<path d="M5660 2983 c8 -3 19 -11 23 -17 6 -7 7 -6 4 4 -2 8 -12 16 -23 17 -13 2 -15 1 -4 -4z"/>
<path d="M1135 2969 c-11 -16 -1 -19 13 -3 7 8 8 14 3 14 -5 0 -13 -5 -16 -11z"/>
<path d="M4015 2969 c-11 -16 -1 -19 13 -3 7 8 8 14 3 14 -5 0 -13 -5 -16 -11z"/>
<path d="M2487 2883 c150 -2 396 -2 545 0 150 1 28 2 -272 2 -300 0 -422 -1 -273 -2z"/>
<path d="M4762 2883 c159 -2 417 -2 575 0 159 1 29 2 -287 2 -316 0 -446 -1 -288 -2z"/>
<path d="M3291 2823 l-1 -33 248 2 247 3 -242 2 -242 3 -4 28 c-4 25 -4 24 -6 -5z"/>
<path d="M1570 2815 c-10 -13 -51 -15 -250 -15 -181 0 -240 3 -243 13 -3 7 -6 5 -6 -5 -1 -17 17 -18 242 -18 231 0 245 1 262 20 10 11 16 20 13 20 -3 0 -11 -7 -18 -15z"/>
<path d="M4450 2816 c-6 -8 -26 -17 -43 -19 l-32 -4 31 -1 c20 -1 37 5 49 18 10 11 16 20 13 20 -3 0 -11 -6 -18 -14z"/>
<path d="M3950 2808 c0 -17 16 -18 208 -16 l207 3 -200 2 c-144 3 -201 7 -207 16 -5 8 -8 7 -8 -5z"/>
<path d="M1542 2750 c0 -14 2 -19 5 -12 2 6 2 18 0 25 -3 6 -5 1 -5 -13z"/>
<path d="M3758 2747 c-3 -19 -2 -25 4 -19 6 6 8 18 6 28 -3 14 -5 12 -10 -9z"/>
<path d="M4417 2750 c3 -11 7 -20 9 -20 2 0 4 9 4 20 0 11 -4 20 -9 20 -5 0 -7 -9 -4 -20z"/>
<path d="M3730 2690 c-9 -6 -10 -10 -3 -10 6 0 15 5 18 10 8 12 4 12 -15 0z"/>
<path d="M999 2643 c-13 -16 -12 -17 4 -4 9 7 17 15 17 17 0 8 -8 3 -21 -13z"/>
<path d="M3219 2643 c-13 -16 -12 -17 4 -4 16 13 21 21 13 21 -2 0 -10 -8 -17 -17z"/>
<path d="M3706 2647 c3 -10 9 -15 12 -12 3 3 0 11 -7 18 -10 9 -11 8 -5 -6z"/>
<path d="M3879 2643 c-13 -16 -12 -17 4 -4 16 13 21 21 13 21 -2 0 -10 -8 -17 -17z"/>
<path d="M970 2580 c0 -5 5 -10 11 -10 5 0 7 5 4 10 -3 6 -8 10 -11 10 -2 0 -4 -4 -4 -10z"/>
<path d="M3190 2580 c0 -5 5 -10 11 -10 5 0 7 5 4 10 -3 6 -8 10 -11 10 -2 0 -4 -4 -4 -10z"/>
<path d="M3850 2580 c0 -5 5 -10 11 -10 5 0 7 5 4 10 -3 6 -8 10 -11 10 -2 0 -4 -4 -4 -10z"/>
<path d="M3155 2499 c-4 -6 -5 -12 -2 -15 2 -3 7 2 10 11 7 17 1 20 -8 4z"/>
<path d="M4316 2493 c-6 -14 -5 -15 5 -6 7 7 10 15 7 18 -3 3 -9 -2 -12 -12z"/>
<path d="M3625 2457 c-15 -12 -16 -15 -4 -22 8 -5 11 -5 7 0 -4 4 0 14 10 21 23 18 11 18 -13 1z"/>
<path d="M1439 2438 c7 -10 25 -17 40 -17 l26 2 -25 4 c-14 3 -32 10 -40 16 -13 11 -13 10 -1 -5z"/>
<path d="M4318 2434 c12 -8 32 -13 45 -11 19 4 18 4 -5 6 -15 0 -30 6 -33 11 -3 6 -11 10 -18 10 -6 0 -1 -7 11 -16z"/>
<path d="M880 2345 c-11 -13 -10 -14 4 -9 9 3 16 10 16 15 0 13 -6 11 -20 -6z"/>
<path d="M3100 2345 c-11 -13 -10 -14 4 -9 9 3 16 10 16 15 0 13 -6 11 -20 -6z"/>
<path d="M3760 2345 c-11 -13 -10 -14 4 -9 9 3 16 10 16 15 0 13 -6 11 -20 -6z"/>
<path d="M3075 2309 c-4 -6 -5 -12 -2 -15 2 -3 7 2 10 11 7 17 1 20 -8 4z"/>
<path d="M3055 2261 c-3 -5 -2 -12 3 -15 5 -3 9 1 9 9 0 17 -3 19 -12 6z"/>
<path d="M2480 2233 c0 -5 5 -15 10 -23 7 -12 9 -10 7 8 -1 19 -17 33 -17 15z"/>
<path d="M3520 2229 c0 -5 5 -7 10 -4 6 3 10 8 10 11 0 2 -4 4 -10 4 -5 0 -10 -5 -10 -11z"/>
<path d="M5360 2233 c0 -5 5 -15 10 -23 7 -12 9 -10 7 8 -1 19 -17 33 -17 15z"/>
<path d="M855 2220 c-3 -6 1 -7 9 -4 18 7 21 14 7 14 -6 0 -13 -4 -16 -10z"/>
<path d="M3035 2219 c-4 -6 -5 -12 -2 -15 2 -3 7 2 10 11 7 17 1 20 -8 4z"/>
<path d="M3735 2220 c-3 -6 1 -7 9 -4 18 7 21 14 7 14 -6 0 -13 -4 -16 -10z"/>
</g>
</g>
  <g id="id15:id15" transform="matrix(1.25,0,0,1.25,0.0,0.0)"><g transform="translate(0.000000,192.000000) scale(0.040000,-0.040000)" fill="#000000" stroke="none">
<path d="M0 2400 l0 -2400 3200 0 3200 0 0 2400 0 2400 -3200 0 -3200 0 0 -2400z m1588 813 c-53 -2 -143 -2 -200 0 -57 1 -13 3 97 3 110 0 156 -2 103 -3z m1845 0 c-204 -2 -542 -2 -750 0 -208 1 -40 2 372 2 413 0 583 -1 378 -2z m1940 0 c-205 -2 -541 -2 -745 0 -205 1 -38 2 372 2 410 0 577 -1 373 -2z m-3673 -38 c7 -8 10 -22 6 -30 -5 -13 -39 -15 -235 -15 -152 0 -232 4 -236 11 -4 5 1 19 11 30 16 18 32 19 229 19 176 0 215 -3 225 -15z m2134 -4 c10 -11 15 -25 11 -30 -4 -8 -247 -11 -791 -11 -700 0 -784 2 -784 15 0 45 -19 44 786 45 740 0 761 -1 778 -19z m1931 -1 c3 -11 3 -24 0 -30 -4 -7 -274 -10 -791 -10 -659 0 -784 2 -784 14 0 7 10 21 23 29 19 14 108 16 784 16 752 1 762 1 768 -19z m-4080 -90 c3 -5 -2 -21 -11 -34 l-16 -25 -235 -3 c-256 -3 -269 -1 -243 47 l13 25 243 0 c146 0 245 -4 249 -10z m2200 -25 l0 -30 -828 -5 c-893 -5 -865 -7 -837 45 l13 25 826 -2 826 -3 0 -30z m1861 20 c2 -5 -4 -20 -14 -32 l-17 -23 -828 -2 c-632 -2 -827 0 -827 9 0 6 4 23 10 37 l10 26 831 -2 c544 -2 833 -6 835 -13z m-4115 -121 c-1 -16 -5 -32 -8 -36 -2 -5 -114 -8 -249 -8 l-245 0 3 33 3 32 240 5 c132 3 245 5 250 4 6 0 8 -14 6 -30z m2220 0 c-1 -16 -5 -32 -8 -36 -2 -5 -370 -8 -817 -8 -865 0 -826 -2 -839 47 l-5 23 826 2 c455 2 832 3 837 2 6 0 8 -14 6 -30z m1836 19 c3 -7 -8 -24 -23 -38 l-27 -25 -814 0 -814 0 3 33 3 32 820 5 c451 3 826 5 834 5 8 0 16 -6 18 -12z m-2655 -90 c-149 -2 -395 -2 -545 0 -149 1 -27 2 273 2 300 0 422 -1 272 -2z m2305 0 c-158 -2 -416 -2 -575 0 -158 1 -28 2 288 2 316 0 446 -1 287 -2z m-3747 -35 c0 -12 -7 -30 -17 -40 -15 -16 -36 -18 -260 -18 -205 0 -243 2 -243 14 0 8 5 18 10 21 6 3 10 15 10 26 0 18 9 19 250 19 250 0 250 0 250 -22z m2220 4 c0 -10 -7 -28 -16 -40 -15 -22 -18 -22 -260 -22 l-244 0 0 28 c0 51 5 52 272 52 231 0 248 -1 248 -18z m662 -7 c-2 -11 -11 -28 -19 -37 -15 -16 -40 -18 -260 -18 -205 0 -243 2 -243 14 0 8 5 18 10 21 6 3 10 15 10 26 0 19 8 19 253 17 246 -3 252 -3 249 -23z m-2922 -90 c0 -18 -20 -57 -35 -67 -5 -4 -117 -8 -247 -8 -233 0 -238 0 -238 20 0 12 7 32 16 45 l16 25 244 0 c211 0 244 -2 244 -15z m2220 2 c0 -8 -7 -28 -16 -45 l-15 -32 -245 0 c-239 0 -244 0 -244 20 0 12 7 32 16 45 l16 25 244 0 c198 0 244 -3 244 -13z m660 -2 c0 -18 -20 -57 -35 -67 -5 -4 -117 -8 -247 -8 -233 0 -238 0 -238 20 0 12 7 32 16 45 l16 25 244 0 c211 0 244 -2 244 -15z m-2935 -127 c-13 -59 -6 -58 -276 -58 -229 0 -272 5 -239 25 6 3 10 14 10 24 0 39 16 41 268 41 l244 0 -7 -32z m2217 -3 c-6 -55 -4 -55 -273 -55 -229 0 -272 5 -239 25 6 3 10 14 10 24 0 39 15 41 265 39 l240 -3 -3 -30z m663 3 c-13 -59 -6 -58 -276 -58 -229 0 -272 5 -239 25 6 3 10 14 10 24 0 39 16 41 268 41 l244 0 -7 -32z m-2925 -104 c0 -14 -5 -34 -10 -45 -10 -18 -24 -19 -260 -19 -243 0 -250 1 -250 20 0 11 5 20 10 20 6 0 10 8 10 18 0 10 3 22 7 25 3 4 116 7 250 7 l243 0 0 -26z m2220 8 c0 -33 -31 -84 -47 -78 -8 3 -118 6 -244 6 -250 0 -243 -2 -213 58 l15 32 245 0 c231 0 244 -1 244 -18z m660 -9 c-1 -63 -3 -63 -274 -63 -239 0 -246 1 -246 20 0 11 5 20 10 20 6 0 10 8 10 18 0 10 3 22 7 25 3 4 116 7 250 7 l243 0 0 -27z m-2882 -85 c10 -10 136 -14 535 -18 554 -5 567 -7 567 -52 0 -17 -45 -18 -827 -20 l-828 -3 828 -2 c711 -3 827 -5 827 -17 0 -8 -4 -18 -10 -21 -5 -3 -10 -15 -10 -25 0 -10 -8 -26 -17 -36 -9 -9 -18 -26 -18 -37 -1 -11 -18 -35 -39 -54 l-36 -33 -746 2 -746 3 -39 44 c-22 24 -36 48 -31 53 4 4 372 9 817 11 l810 2 -817 3 -818 2 0 28 c0 15 9 42 20 60 11 18 20 38 20 46 0 7 7 27 16 44 l15 32 258 0 c192 0 260 -3 269 -12z m2180 -15 c2 -13 -1 -23 -7 -23 -5 0 -11 -10 -13 -22 -3 -23 -3 -23 -248 -28 l-245 -6 238 -2 c199 -2 237 -4 237 -16 0 -8 -4 -18 -10 -21 -5 -3 -10 -15 -10 -26 0 -10 -9 -27 -20 -36 -11 -10 -20 -24 -20 -33 -1 -20 -24 -50 -57 -72 -25 -16 -51 -18 -221 -18 -218 0 -226 2 -220 67 l3 38 245 5 245 6 -232 2 c-210 2 -264 8 -233 27 5 3 10 14 10 23 0 9 9 28 20 42 11 14 20 32 20 41 0 9 7 30 16 48 l16 31 241 -2 242 -3 3 -22z m700 15 c10 -10 136 -14 535 -18 554 -5 567 -7 567 -52 0 -17 -45 -18 -827 -20 l-828 -3 828 -2 c711 -3 827 -5 827 -17 0 -8 -4 -18 -10 -21 -5 -3 -10 -15 -10 -25 0 -10 -8 -26 -17 -36 -9 -9 -18 -26 -18 -37 -1 -11 -18 -35 -39 -54 l-36 -33 -746 2 -746 3 -39 44 c-22 24 -36 48 -31 53 4 4 372 9 817 11 l810 2 -817 3 -818 2 0 28 c0 15 9 42 20 60 11 18 20 38 20 46 0 7 7 27 16 44 l15 32 258 0 c192 0 260 -3 269 -12z"/>
</g>
</g>
</svg>
